<svg width="1280" height="640" viewBox="0 0 1280 640" fill="none" xmlns="http://www.w3.org/2000/svg">
<rect width="1280" height="640" rx="32" fill="white"/>
<path d="M242.92 427.624V388.424H260C264.629 388.424 268.307 389.618 271.032 392.008C273.757 394.397 275.12 397.402 275.12 401.024C275.12 403.898 274.224 406.437 272.432 408.64C270.677 410.805 268.213 412.28 265.04 413.064L274.84 427.624H267.28L258.04 413.624H249.36V427.624H242.92ZM249.36 407.464H260C265.6 407.464 268.4 405.317 268.4 401.024C268.4 396.73 265.6 394.584 260 394.584H249.36V407.464ZM280.49 423.928C277.69 421.053 276.29 417.525 276.29 413.344C276.29 409.162 277.69 405.653 280.49 402.816C283.328 399.941 286.781 398.504 290.85 398.504C294.92 398.504 298.354 399.941 301.154 402.816C303.992 405.653 305.41 409.162 305.41 413.344V415.304H282.17C282.618 417.656 283.645 419.504 285.25 420.848C286.856 422.192 288.722 422.864 290.85 422.864C293.464 422.864 295.554 422.21 297.122 420.904C297.832 420.381 298.448 419.728 298.97 418.944H305.13C304.346 420.773 303.357 422.322 302.162 423.592C299.101 426.653 295.33 428.184 290.85 428.184C286.781 428.184 283.328 426.765 280.49 423.928ZM282.45 410.544H299.25C298.914 408.677 298.018 407.09 296.562 405.784C295.144 404.477 293.24 403.824 290.85 403.824C288.834 403.824 287.042 404.44 285.474 405.672C283.906 406.866 282.898 408.49 282.45 410.544ZM307.095 415.864H313.815C314.076 417.17 314.617 418.346 315.439 419.392C317.231 421.706 319.956 422.864 323.615 422.864C326.564 422.864 328.748 422.341 330.167 421.296C331.585 420.213 332.295 418.776 332.295 416.984C332.295 415.565 331.641 414.426 330.335 413.568C329.065 412.709 327.236 411.962 324.847 411.328C320.18 410.133 317.044 409.144 315.439 408.36C310.996 406.306 308.775 403.208 308.775 399.064C308.775 395.89 310.119 393.146 312.807 390.832C315.495 388.48 319.004 387.304 323.335 387.304C329.084 387.304 333.359 389.226 336.159 393.072C337.353 394.714 338.212 396.618 338.735 398.784H332.015C331.753 397.738 331.287 396.805 330.615 395.984C329.047 394.117 326.62 393.184 323.335 393.184C320.796 393.184 318.855 393.706 317.511 394.752C316.167 395.797 315.495 397.141 315.495 398.784C315.495 401.248 317.977 403.152 322.943 404.496C323.353 404.608 324.137 404.832 325.295 405.168C326.452 405.466 327.273 405.709 327.759 405.896C328.281 406.045 329.065 406.306 330.111 406.68C331.193 407.016 331.996 407.333 332.519 407.632C333.041 407.93 333.713 408.322 334.535 408.808C335.356 409.256 335.972 409.741 336.383 410.264C336.831 410.749 337.279 411.309 337.727 411.944C338.212 412.578 338.548 413.306 338.735 414.128C338.921 414.912 339.015 415.77 339.015 416.704C339.015 420.064 337.615 422.92 334.815 425.272C332.052 427.586 328.319 428.744 323.615 428.744C317.343 428.744 312.732 426.597 309.783 422.304C308.439 420.474 307.543 418.328 307.095 415.864ZM345.036 423.984C342.311 421.184 340.948 417.637 340.948 413.344C340.948 409.05 342.311 405.504 345.036 402.704C347.762 399.904 351.159 398.504 355.228 398.504C359.783 398.504 363.498 400.24 366.372 403.712C367.604 405.317 368.463 407.034 368.948 408.864H362.788C362.527 407.93 362.042 407.09 361.332 406.344C359.876 404.664 357.842 403.824 355.228 403.824C352.914 403.824 350.972 404.701 349.404 406.456C347.874 408.21 347.108 410.506 347.108 413.344C347.108 416.181 347.874 418.477 349.404 420.232C350.972 421.986 352.914 422.864 355.228 422.864C357.916 422.864 360.026 422.024 361.556 420.344C362.228 419.597 362.732 418.757 363.068 417.824H368.948C368.463 419.728 367.604 421.464 366.372 423.032C363.535 426.466 359.82 428.184 355.228 428.184C351.159 428.184 347.762 426.784 345.036 423.984ZM371.731 427.624V399.064H377.611V403.264H377.891C378.302 402.48 378.899 401.733 379.683 401.024C381.4 399.53 383.416 398.784 385.731 398.784H389.091V404.384H385.451C383.174 404.384 381.288 405.112 379.795 406.568C378.339 407.986 377.611 409.872 377.611 412.224V427.624H371.731ZM392.039 393.856C391.367 393.184 391.031 392.362 391.031 391.392C391.031 390.421 391.367 389.6 392.039 388.928C392.711 388.218 393.533 387.864 394.503 387.864C395.474 387.864 396.295 388.218 396.967 388.928C397.677 389.6 398.031 390.421 398.031 391.392C398.031 392.362 397.677 393.184 396.967 393.856C396.295 394.528 395.474 394.864 394.503 394.864C393.533 394.864 392.711 394.528 392.039 393.856ZM391.591 427.624V399.064H397.471V427.624H391.591ZM402.209 438.264V399.064H408.089V402.704H408.369C409.041 401.92 409.807 401.229 410.665 400.632C412.681 399.213 414.903 398.504 417.329 398.504C421.175 398.504 424.367 399.885 426.905 402.648C429.481 405.373 430.769 408.938 430.769 413.344C430.769 417.749 429.481 421.333 426.905 424.096C424.367 426.821 421.175 428.184 417.329 428.184C414.865 428.184 412.644 427.493 410.665 426.112C409.769 425.477 409.004 424.768 408.369 423.984H408.089V438.264H402.209ZM410.273 406.344C408.817 407.986 408.089 410.32 408.089 413.344C408.089 416.368 408.817 418.72 410.273 420.4C411.767 422.042 413.745 422.864 416.209 422.864C418.823 422.864 420.876 422.042 422.369 420.4C423.863 418.757 424.609 416.405 424.609 413.344C424.609 410.282 423.863 407.93 422.369 406.288C420.876 404.645 418.823 403.824 416.209 403.824C413.745 403.824 411.767 404.664 410.273 406.344ZM431.587 404.384V399.064H434.947V392.904H440.827V399.064H449.507V404.384H440.827V422.304H449.788V427.624H434.947V404.384H431.587ZM466.603 427.624V388.424H472.483V402.704H472.763C473.435 401.92 474.2 401.229 475.059 400.632C477.075 399.213 479.296 398.504 481.723 398.504C485.568 398.504 488.76 399.885 491.299 402.648C493.875 405.373 495.163 408.938 495.163 413.344C495.163 417.749 493.875 421.333 491.299 424.096C488.76 426.821 485.568 428.184 481.723 428.184C479.259 428.184 477.037 427.493 475.059 426.112C474.163 425.477 473.397 424.768 472.763 423.984H472.483V427.624H466.603ZM474.667 406.344C473.211 407.986 472.483 410.32 472.483 413.344C472.483 416.368 473.211 418.72 474.667 420.4C476.16 422.042 478.139 422.864 480.603 422.864C483.216 422.864 485.269 422.042 486.763 420.4C488.256 418.757 489.003 416.405 489.003 413.344C489.003 410.282 488.256 407.93 486.763 406.288C485.269 404.645 483.216 403.824 480.603 403.824C478.139 403.824 476.16 404.664 474.667 406.344ZM498.669 393.856C497.997 393.184 497.661 392.362 497.661 391.392C497.661 390.421 497.997 389.6 498.669 388.928C499.341 388.218 500.162 387.864 501.133 387.864C502.104 387.864 502.925 388.218 503.597 388.928C504.306 389.6 504.661 390.421 504.661 391.392C504.661 392.362 504.306 393.184 503.597 393.856C502.925 394.528 502.104 394.864 501.133 394.864C500.162 394.864 499.341 394.528 498.669 393.856ZM498.221 427.624V399.064H504.101V427.624H498.221ZM508.839 427.624V399.064H514.719V402.984H514.999C515.447 402.237 516.138 401.49 517.071 400.744C519.087 399.25 521.383 398.504 523.959 398.504C527.506 398.504 530.25 399.53 532.191 401.584C534.17 403.637 535.159 406.624 535.159 410.544V427.624H529.279V411.104C529.279 408.602 528.719 406.773 527.599 405.616C526.516 404.421 524.836 403.824 522.559 403.824C520.282 403.824 518.396 404.608 516.903 406.176C515.447 407.706 514.719 409.722 514.719 412.224V427.624H508.839ZM541.765 424.096C539.226 421.333 537.957 417.749 537.957 413.344C537.957 408.938 539.226 405.373 541.765 402.648C544.341 399.885 547.552 398.504 551.397 398.504C553.824 398.504 556.045 399.213 558.061 400.632C558.92 401.229 559.685 401.92 560.357 402.704H560.637V388.424H566.517V427.624H560.637V423.984H560.357C559.722 424.768 558.957 425.477 558.061 426.112C556.082 427.493 553.861 428.184 551.397 428.184C547.552 428.184 544.341 426.821 541.765 424.096ZM546.357 406.288C544.864 407.93 544.117 410.282 544.117 413.344C544.117 416.405 544.864 418.757 546.357 420.4C547.85 422.042 549.904 422.864 552.517 422.864C554.981 422.864 556.941 422.042 558.397 420.4C559.89 418.72 560.637 416.368 560.637 413.344C560.637 410.32 559.89 407.986 558.397 406.344C556.941 404.664 554.981 403.824 552.517 403.824C549.904 403.824 547.85 404.645 546.357 406.288ZM571.703 393.856C571.031 393.184 570.695 392.362 570.695 391.392C570.695 390.421 571.031 389.6 571.703 388.928C572.375 388.218 573.196 387.864 574.167 387.864C575.138 387.864 575.959 388.218 576.631 388.928C577.34 389.6 577.695 390.421 577.695 391.392C577.695 392.362 577.34 393.184 576.631 393.856C575.959 394.528 575.138 394.864 574.167 394.864C573.196 394.864 572.375 394.528 571.703 393.856ZM571.255 427.624V399.064H577.135V427.624H571.255ZM581.873 427.624V399.064H587.753V402.984H588.033C588.481 402.237 589.172 401.49 590.105 400.744C592.121 399.25 594.417 398.504 596.993 398.504C600.54 398.504 603.284 399.53 605.225 401.584C607.204 403.637 608.193 406.624 608.193 410.544V427.624H602.313V411.104C602.313 408.602 601.753 406.773 600.633 405.616C599.55 404.421 597.87 403.824 595.593 403.824C593.316 403.824 591.43 404.608 589.937 406.176C588.481 407.706 587.753 409.722 587.753 412.224V427.624H581.873ZM614.799 424.096C612.26 421.333 610.991 417.749 610.991 413.344C610.991 408.938 612.26 405.373 614.799 402.648C617.375 399.885 620.586 398.504 624.431 398.504C626.858 398.504 629.079 399.213 631.095 400.632C631.991 401.266 632.756 401.976 633.391 402.76H633.671V399.064H639.551V438.264H615.191V432.944H633.671V423.984H633.391C632.756 424.768 631.991 425.477 631.095 426.112C629.116 427.493 626.895 428.184 624.431 428.184C620.586 428.184 617.375 426.821 614.799 424.096ZM619.391 406.288C617.898 407.93 617.151 410.282 617.151 413.344C617.151 416.405 617.898 418.757 619.391 420.4C620.884 422.042 622.938 422.864 625.551 422.864C628.015 422.864 629.975 422.042 631.431 420.4C632.924 418.72 633.671 416.368 633.671 413.344C633.671 410.32 632.924 407.986 631.431 406.344C629.975 404.664 628.015 403.824 625.551 403.824C622.938 403.824 620.884 404.645 619.391 406.288ZM642.329 418.664H648.769C649.03 419.41 649.497 420.12 650.169 420.792C651.55 422.173 653.417 422.864 655.769 422.864C657.822 422.864 659.316 422.546 660.249 421.912C661.182 421.277 661.649 420.474 661.649 419.504C661.649 419.168 661.574 418.869 661.425 418.608C661.276 418.309 661.014 418.048 660.641 417.824C660.268 417.6 659.913 417.413 659.577 417.264C659.241 417.077 658.737 416.909 658.065 416.76C657.393 416.573 656.852 416.442 656.441 416.368C656.03 416.256 655.396 416.106 654.537 415.92C653.716 415.733 653.1 415.602 652.689 415.528C646.716 414.184 643.729 411.309 643.729 406.904C643.729 404.664 644.756 402.704 646.809 401.024C648.862 399.344 651.569 398.504 654.929 398.504C659.596 398.504 663.086 399.997 665.401 402.984C666.446 404.29 667.156 405.784 667.529 407.464H661.369C661.07 406.717 660.66 406.12 660.137 405.672C658.83 404.44 657.094 403.824 654.929 403.824C653.249 403.824 651.98 404.122 651.121 404.72C650.3 405.317 649.889 406.064 649.889 406.96C649.889 407.296 649.964 407.613 650.113 407.912C650.262 408.173 650.524 408.416 650.897 408.64C651.27 408.864 651.625 409.05 651.961 409.2C652.334 409.349 652.838 409.517 653.473 409.704C654.108 409.853 654.649 409.984 655.097 410.096C655.545 410.17 656.161 410.301 656.945 410.488C657.766 410.637 658.401 410.768 658.849 410.88C664.822 412.224 667.809 415.098 667.809 419.504C667.809 421.893 666.726 423.946 664.561 425.664C662.433 427.344 659.502 428.184 655.769 428.184C650.916 428.184 647.201 426.597 644.625 423.424C643.468 421.968 642.702 420.381 642.329 418.664ZM682.371 404.384V399.064H685.731V388.424H700.011V393.744H691.611V399.064H698.331V404.384H691.611V427.624H685.731V404.384H682.371ZM703.438 423.928C700.601 421.053 699.182 417.525 699.182 413.344C699.182 409.162 700.601 405.653 703.438 402.816C706.313 399.941 709.841 398.504 714.022 398.504C718.204 398.504 721.713 399.941 724.55 402.816C727.425 405.653 728.862 409.162 728.862 413.344C728.862 417.525 727.425 421.053 724.55 423.928C721.713 426.765 718.204 428.184 714.022 428.184C709.841 428.184 706.313 426.765 703.438 423.928ZM707.75 406.456C706.145 408.173 705.342 410.469 705.342 413.344C705.342 416.218 706.145 418.533 707.75 420.288C709.356 422.005 711.446 422.864 714.022 422.864C716.598 422.864 718.689 422.005 720.294 420.288C721.9 418.533 722.702 416.218 722.702 413.344C722.702 410.469 721.9 408.173 720.294 406.456C718.689 404.701 716.598 403.824 714.022 403.824C711.446 403.824 709.356 404.701 707.75 406.456ZM731.933 427.624V399.064H737.813V403.264H738.093C738.504 402.48 739.101 401.733 739.885 401.024C741.603 399.53 743.619 398.784 745.933 398.784H749.293V404.384H745.653C743.376 404.384 741.491 405.112 739.997 406.568C738.541 407.986 737.813 409.872 737.813 412.224V427.624H731.933ZM766.089 427.624V388.424H783.169C787.798 388.424 791.476 389.618 794.201 392.008C796.926 394.397 798.289 397.402 798.289 401.024C798.289 403.898 797.393 406.437 795.601 408.64C793.846 410.805 791.382 412.28 788.209 413.064L798.009 427.624H790.449L781.209 413.624H772.529V427.624H766.089ZM772.529 407.464H783.169C788.769 407.464 791.569 405.317 791.569 401.024C791.569 396.73 788.769 394.584 783.169 394.584H772.529V407.464ZM803.659 423.928C800.859 421.053 799.459 417.525 799.459 413.344C799.459 409.162 800.859 405.653 803.659 402.816C806.497 399.941 809.95 398.504 814.019 398.504C818.089 398.504 821.523 399.941 824.323 402.816C827.161 405.653 828.579 409.162 828.579 413.344V415.304H805.339C805.787 417.656 806.814 419.504 808.419 420.848C810.025 422.192 811.891 422.864 814.019 422.864C816.633 422.864 818.723 422.21 820.291 420.904C821.001 420.381 821.617 419.728 822.139 418.944H828.299C827.515 420.773 826.526 422.322 825.331 423.592C822.27 426.653 818.499 428.184 814.019 428.184C809.95 428.184 806.497 426.765 803.659 423.928ZM805.619 410.544H822.419C822.083 408.677 821.187 407.09 819.731 405.784C818.313 404.477 816.409 403.824 814.019 403.824C812.003 403.824 810.211 404.44 808.643 405.672C807.075 406.866 806.067 408.49 805.619 410.544ZM833.792 424.096C831.253 421.333 829.984 417.749 829.984 413.344C829.984 408.938 831.253 405.373 833.792 402.648C836.368 399.885 839.578 398.504 843.424 398.504C845.85 398.504 848.072 399.213 850.088 400.632C850.946 401.229 851.712 401.92 852.384 402.704H852.664V399.064H858.544V427.624H852.664V423.704H852.384C851.824 424.488 851.058 425.234 850.088 425.944C848.072 427.437 845.85 428.184 843.424 428.184C839.578 428.184 836.368 426.821 833.792 424.096ZM838.384 406.288C836.89 407.93 836.144 410.282 836.144 413.344C836.144 416.405 836.89 418.757 838.384 420.4C839.877 422.042 841.93 422.864 844.544 422.864C847.008 422.864 848.968 422.042 850.424 420.4C851.917 418.72 852.664 416.368 852.664 413.344C852.664 410.32 851.917 407.986 850.424 406.344C848.968 404.664 847.008 403.824 844.544 403.824C841.93 403.824 839.877 404.645 838.384 406.288ZM865.69 423.984C862.965 421.184 861.602 417.637 861.602 413.344C861.602 409.05 862.965 405.504 865.69 402.704C868.415 399.904 871.813 398.504 875.882 398.504C880.437 398.504 884.151 400.24 887.026 403.712C888.258 405.317 889.117 407.034 889.602 408.864H883.442C883.181 407.93 882.695 407.09 881.986 406.344C880.53 404.664 878.495 403.824 875.882 403.824C873.567 403.824 871.626 404.701 870.058 406.456C868.527 408.21 867.762 410.506 867.762 413.344C867.762 416.181 868.527 418.477 870.058 420.232C871.626 421.986 873.567 422.864 875.882 422.864C878.57 422.864 880.679 422.024 882.21 420.344C882.882 419.597 883.386 418.757 883.722 417.824H889.602C889.117 419.728 888.258 421.464 887.026 423.032C884.189 426.466 880.474 428.184 875.882 428.184C871.813 428.184 868.415 426.784 865.69 423.984ZM890.144 404.384V399.064H893.504V392.904H899.384V399.064H908.064V404.384H899.384V422.304H908.344V427.624H893.504V404.384H890.144ZM925.72 427.624V388.424H953.16V394.584H932.16V405.784H948.68V411.944H932.16V427.624H925.72ZM955.684 427.624V388.424H961.564V422.304H968.004V427.624H955.684ZM972.542 423.928C969.705 421.053 968.286 417.525 968.286 413.344C968.286 409.162 969.705 405.653 972.542 402.816C975.417 399.941 978.945 398.504 983.126 398.504C987.308 398.504 990.817 399.941 993.654 402.816C996.529 405.653 997.966 409.162 997.966 413.344C997.966 417.525 996.529 421.053 993.654 423.928C990.817 426.765 987.308 428.184 983.126 428.184C978.945 428.184 975.417 426.765 972.542 423.928ZM976.854 406.456C975.249 408.173 974.446 410.469 974.446 413.344C974.446 416.218 975.249 418.533 976.854 420.288C978.46 422.005 980.55 422.864 983.126 422.864C985.702 422.864 987.793 422.005 989.398 420.288C991.004 418.533 991.806 416.218 991.806 413.344C991.806 410.469 991.004 408.173 989.398 406.456C987.793 404.701 985.702 403.824 983.126 403.824C980.55 403.824 978.46 404.701 976.854 406.456ZM998.797 399.064H1004.96L1009.72 422.304H1010.56L1015.32 399.064H1023.72L1028.48 422.304H1029.32L1034.08 399.064H1040.24L1034.08 427.624H1024L1019.8 405.784H1019.24L1015.04 427.624H1004.96L998.797 399.064Z" fill="#0E0E0E"/>
<g clip-path="url(#clip0)">
<g filter="url(#filter0_i)">
<path d="M693.27 236.888C693.27 219.445 693.27 210.728 697.711 204.611C699.146 202.636 700.883 200.899 702.858 199.463C708.969 195.022 717.692 195.022 735.133 195.022H782.092C799.535 195.022 808.252 195.022 814.369 199.463C816.344 200.898 818.08 202.635 819.514 204.611C823.957 210.724 823.957 219.445 823.957 236.888V283.845C823.957 301.288 823.957 310.005 819.514 316.122C818.08 318.097 816.344 319.834 814.369 321.267C808.255 325.711 799.535 325.711 782.092 325.711H735.133C717.692 325.711 708.973 325.711 702.858 321.267C700.883 319.833 699.146 318.097 697.711 316.122C693.27 310.009 693.27 301.288 693.27 283.845V236.888Z" fill="#DD1350"/>
</g>
<g filter="url(#filter1_di)">
<path d="M781.83 257.261C790.399 257.261 797.346 250.314 797.346 241.745C797.346 233.175 790.399 226.228 781.83 226.228C773.26 226.228 766.313 233.175 766.313 241.745C766.313 250.314 773.26 257.261 781.83 257.261Z" fill="#FBFBFB"/>
</g>
<path d="M728.511 240.884C728.511 235.959 728.511 233.495 729.474 231.61C730.316 229.953 731.662 228.605 733.318 227.761C735.2 226.804 737.664 226.804 742.592 226.804L753.833 225.71L754.91 226.804V283.992C754.91 288.091 754.613 289.934 753.942 291.549C753.5 292.616 752.852 293.586 752.035 294.403C751.218 295.22 750.248 295.868 749.18 296.31C747.564 296.98 745.811 297.188 741.713 297.188C737.614 297.188 735.563 297.188 733.948 296.518C732.881 296.076 731.911 295.428 731.094 294.611C730.276 293.795 729.628 292.824 729.186 291.757C728.516 290.141 728.516 288.09 728.516 283.992L728.511 240.884Z" fill="#DD1350"/>
<g filter="url(#filter2_i)">
<path d="M727.415 239.784C727.415 234.858 727.415 232.394 728.377 230.51C729.219 228.852 730.565 227.504 732.221 226.66C734.103 225.703 736.567 225.703 741.495 225.703H753.813V282.891C753.813 286.991 753.813 289.042 753.143 290.656C752.701 291.724 752.053 292.694 751.236 293.511C750.418 294.328 749.448 294.976 748.381 295.418C746.765 296.088 744.714 296.088 740.616 296.088C736.517 296.088 734.466 296.088 732.851 295.418C731.784 294.976 730.814 294.328 729.997 293.511C729.18 292.694 728.531 291.724 728.089 290.656C727.419 289.041 727.419 286.99 727.419 282.891L727.415 239.784Z" fill="#FBFBFB"/>
</g>
</g>
<path d="M661.27 258.656C661.27 260.801 659.531 262.54 657.386 262.54H644.924V275.002C644.924 277.371 643.004 279.291 640.635 279.291V279.291C638.266 279.291 636.346 277.371 636.346 275.002V262.54H623.884C621.739 262.54 620 260.801 620 258.656V258.656C620 256.511 621.739 254.772 623.884 254.772H636.346V242.31C636.346 239.941 638.266 238.021 640.635 238.021V238.021C643.004 238.021 644.924 239.941 644.924 242.31V254.772H657.386C659.531 254.772 661.27 256.511 661.27 258.656V258.656Z" fill="#0E0E0E"/>
<path d="M571.75 268.75H539.25C535.66 268.75 532.75 271.66 532.75 275.25V307.75C532.75 311.34 535.66 314.25 539.25 314.25H571.75C575.339 314.25 578.25 311.34 578.25 307.75V275.25C578.25 271.66 575.339 268.75 571.75 268.75Z" fill="#FBFBFB" stroke="#0E0E0E" stroke-width="6.5"/>
<path d="M571.75 203.75H539.25C535.66 203.75 532.75 206.66 532.75 210.25V242.75C532.75 246.34 535.66 249.25 539.25 249.25H571.75C575.339 249.25 578.25 246.34 578.25 242.75V210.25C578.25 206.66 575.339 203.75 571.75 203.75Z" fill="#FBFBFB" stroke="#DD1350" stroke-width="6.5"/>
<path d="M506.75 268.75H474.25C470.66 268.75 467.75 271.66 467.75 275.25V307.75C467.75 311.34 470.66 314.25 474.25 314.25H506.75C510.34 314.25 513.25 311.34 513.25 307.75V275.25C513.25 271.66 510.34 268.75 506.75 268.75Z" fill="#FBFBFB" stroke="#0E0E0E" stroke-width="6.5"/>
<path d="M506.75 203.75H474.25C470.66 203.75 467.75 206.66 467.75 210.25V242.75C467.75 246.34 470.66 249.25 474.25 249.25H506.75C510.34 249.25 513.25 246.34 513.25 242.75V210.25C513.25 206.66 510.34 203.75 506.75 203.75Z" fill="#FBFBFB" stroke="#0E0E0E" stroke-width="6.5"/>
<path d="M513.25 236.25C518.635 236.25 523 231.885 523 226.5C523 221.115 518.635 216.75 513.25 216.75C507.865 216.75 503.5 221.115 503.5 226.5C503.5 231.885 507.865 236.25 513.25 236.25Z" fill="#FBFBFB"/>
<path d="M532.75 236.25C538.135 236.25 542.5 231.885 542.5 226.5C542.5 221.115 538.135 216.75 532.75 216.75C527.365 216.75 523 221.115 523 226.5C523 231.885 527.365 236.25 532.75 236.25Z" fill="#FBFBFB"/>
<path d="M555.5 259C560.885 259 565.25 254.635 565.25 249.25C565.25 243.865 560.885 239.5 555.5 239.5C550.115 239.5 545.75 243.865 545.75 249.25C545.75 254.635 550.115 259 555.5 259Z" fill="#FBFBFB"/>
<path d="M555.5 278.5C560.885 278.5 565.25 274.135 565.25 268.75C565.25 263.365 560.885 259 555.5 259C550.115 259 545.75 263.365 545.75 268.75C545.75 274.135 550.115 278.5 555.5 278.5Z" fill="#FBFBFB"/>
<path d="M513.25 301.25C518.635 301.25 523 296.885 523 291.5C523 286.115 518.635 281.75 513.25 281.75C507.865 281.75 503.5 286.115 503.5 291.5C503.5 296.885 507.865 301.25 513.25 301.25Z" fill="#FBFBFB"/>
<path d="M532.75 301.25C538.135 301.25 542.5 296.885 542.5 291.5C542.5 286.115 538.135 281.75 532.75 281.75C527.365 281.75 523 286.115 523 291.5C523 296.885 527.365 301.25 532.75 301.25Z" fill="#FBFBFB"/>
<path d="M555.5 275.25C559.09 275.25 562 272.34 562 268.75C562 265.16 559.09 262.25 555.5 262.25C551.91 262.25 549 265.16 549 268.75C549 272.34 551.91 275.25 555.5 275.25Z" fill="#0E0E0E"/>
<path d="M513.25 298C516.84 298 519.75 295.09 519.75 291.5C519.75 287.91 516.84 285 513.25 285C509.66 285 506.75 287.91 506.75 291.5C506.75 295.09 509.66 298 513.25 298Z" fill="#0E0E0E"/>
<path d="M532.75 298C536.34 298 539.25 295.09 539.25 291.5C539.25 287.91 536.34 285 532.75 285C529.16 285 526.25 287.91 526.25 291.5C526.25 295.09 529.16 298 532.75 298Z" fill="#0E0E0E"/>
<path opacity="0.35" d="M529.5 224.875H516.5V228.125H529.5V224.875Z" fill="#0E0E0E"/>
<path opacity="0.35" d="M553.875 250.875V263.875H557.125V250.875H553.875Z" fill="#0E0E0E"/>
<path opacity="0.35" d="M529.5 289.875H516.5V293.125H529.5V289.875Z" fill="#0E0E0E"/>
<path d="M513.25 233C516.84 233 519.75 230.09 519.75 226.5C519.75 222.91 516.84 220 513.25 220C509.66 220 506.75 222.91 506.75 226.5C506.75 230.09 509.66 233 513.25 233Z" fill="#0E0E0E"/>
<path d="M532.75 233C536.34 233 539.25 230.09 539.25 226.5C539.25 222.91 536.34 220 532.75 220C529.16 220 526.25 222.91 526.25 226.5C526.25 230.09 529.16 233 532.75 233Z" fill="#DD1350"/>
<path d="M555.5 255.75C559.09 255.75 562 252.84 562 249.25C562 245.66 559.09 242.75 555.5 242.75C551.91 242.75 549 245.66 549 249.25C549 252.84 551.91 255.75 555.5 255.75Z" fill="#DD1350"/>
<defs>
<filter id="filter0_i" x="693.27" y="194.147" width="130.687" height="131.563" filterUnits="userSpaceOnUse" color-interpolation-filters="sRGB">
<feFlood flood-opacity="0" result="BackgroundImageFix"/>
<feBlend mode="normal" in="SourceGraphic" in2="BackgroundImageFix" result="shape"/>
<feColorMatrix in="SourceAlpha" type="matrix" values="0 0 0 0 0 0 0 0 0 0 0 0 0 0 0 0 0 0 127 0" result="hardAlpha"/>
<feOffset dy="-0.874915"/>
<feGaussianBlur stdDeviation="0.874915"/>
<feComposite in2="hardAlpha" operator="arithmetic" k2="-1" k3="1"/>
<feColorMatrix type="matrix" values="0 0 0 0 0 0 0 0 0 0 0 0 0 0 0 0 0 0 0.2 0"/>
<feBlend mode="normal" in2="shape" result="effect1_innerShadow"/>
</filter>
<filter id="filter1_di" x="764.563" y="223.603" width="35.9823" height="36.8573" filterUnits="userSpaceOnUse" color-interpolation-filters="sRGB">
<feFlood flood-opacity="0" result="BackgroundImageFix"/>
<feColorMatrix in="SourceAlpha" type="matrix" values="0 0 0 0 0 0 0 0 0 0 0 0 0 0 0 0 0 0 127 0" result="hardAlpha"/>
<feOffset dx="1.10823" dy="1.10823"/>
<feGaussianBlur stdDeviation="1.04551"/>
<feColorMatrix type="matrix" values="0 0 0 0 0 0 0 0 0 0 0 0 0 0 0 0 0 0 0.15 0"/>
<feBlend mode="normal" in2="BackgroundImageFix" result="effect1_dropShadow"/>
<feBlend mode="normal" in="SourceGraphic" in2="effect1_dropShadow" result="shape"/>
<feColorMatrix in="SourceAlpha" type="matrix" values="0 0 0 0 0 0 0 0 0 0 0 0 0 0 0 0 0 0 127 0" result="hardAlpha"/>
<feOffset dx="-1.74984" dy="-2.62475"/>
<feGaussianBlur stdDeviation="2.21646"/>
<feComposite in2="hardAlpha" operator="arithmetic" k2="-1" k3="1"/>
<feColorMatrix type="matrix" values="0 0 0 0 0.321804 0 0 0 0 0.309804 0 0 0 0 0.909804 0 0 0 0.25 0"/>
<feBlend mode="normal" in2="shape" result="effect2_innerShadow"/>
</filter>
<filter id="filter2_i" x="725.664" y="223.078" width="28.1497" height="73.0095" filterUnits="userSpaceOnUse" color-interpolation-filters="sRGB">
<feFlood flood-opacity="0" result="BackgroundImageFix"/>
<feBlend mode="normal" in="SourceGraphic" in2="BackgroundImageFix" result="shape"/>
<feColorMatrix in="SourceAlpha" type="matrix" values="0 0 0 0 0 0 0 0 0 0 0 0 0 0 0 0 0 0 127 0" result="hardAlpha"/>
<feOffset dx="-1.75101" dy="-2.62475"/>
<feGaussianBlur stdDeviation="2.21646"/>
<feComposite in2="hardAlpha" operator="arithmetic" k2="-1" k3="1"/>
<feColorMatrix type="matrix" values="0 0 0 0 0.321804 0 0 0 0 0.309804 0 0 0 0 0.909804 0 0 0 0.25 0"/>
<feBlend mode="normal" in2="shape" result="effect1_innerShadow"/>
</filter>
<clipPath id="clip0">
<rect width="130.688" height="130.688" fill="white" transform="translate(693.27 194)"/>
</clipPath>
</defs>
</svg>
