<svg width="901" height="314" viewBox="0 0 901 314" fill="none" xmlns="http://www.w3.org/2000/svg">
<rect width="901" height="314" rx="8" fill="#FBFBFB"/>
<path d="M234.728 216.515L229.8 207.811H227.688V216.515H223.208V194.179H231.592C233.32 194.179 234.792 194.488 236.008 195.107C237.224 195.704 238.131 196.526 238.728 197.571C239.347 198.595 239.656 199.747 239.656 201.027C239.656 202.499 239.229 203.832 238.376 205.027C237.523 206.2 236.253 207.011 234.568 207.459L239.912 216.515H234.728ZM227.688 204.451H231.432C232.648 204.451 233.555 204.163 234.152 203.587C234.749 202.99 235.048 202.168 235.048 201.123C235.048 200.099 234.749 199.31 234.152 198.755C233.555 198.179 232.648 197.891 231.432 197.891H227.688V204.451ZM258.268 207.267C258.268 207.907 258.225 208.483 258.14 208.995H245.18C245.287 210.275 245.735 211.278 246.524 212.003C247.313 212.728 248.284 213.091 249.436 213.091C251.1 213.091 252.284 212.376 252.988 210.947H257.82C257.308 212.654 256.327 214.062 254.876 215.171C253.425 216.259 251.644 216.803 249.532 216.803C247.825 216.803 246.289 216.43 244.924 215.683C243.58 214.915 242.524 213.838 241.756 212.451C241.009 211.064 240.636 209.464 240.636 207.651C240.636 205.816 241.009 204.206 241.756 202.819C242.503 201.432 243.548 200.366 244.892 199.619C246.236 198.872 247.783 198.499 249.532 198.499C251.217 198.499 252.721 198.862 254.044 199.587C255.388 200.312 256.423 201.347 257.148 202.691C257.895 204.014 258.268 205.539 258.268 207.267ZM253.628 205.987C253.607 204.835 253.191 203.918 252.38 203.235C251.569 202.531 250.577 202.179 249.404 202.179C248.295 202.179 247.356 202.52 246.588 203.203C245.841 203.864 245.383 204.792 245.212 205.987H253.628ZM267.33 216.739C265.773 216.739 264.365 216.472 263.106 215.939C261.869 215.406 260.887 214.638 260.162 213.635C259.437 212.632 259.063 211.448 259.042 210.083H263.842C263.906 211 264.226 211.726 264.802 212.259C265.399 212.792 266.21 213.059 267.234 213.059C268.279 213.059 269.101 212.814 269.698 212.323C270.295 211.811 270.594 211.15 270.594 210.339C270.594 209.678 270.391 209.134 269.986 208.707C269.581 208.28 269.069 207.95 268.45 207.715C267.853 207.459 267.021 207.182 265.954 206.883C264.503 206.456 263.319 206.04 262.402 205.635C261.506 205.208 260.727 204.579 260.066 203.747C259.426 202.894 259.106 201.763 259.106 200.355C259.106 199.032 259.437 197.88 260.098 196.899C260.759 195.918 261.687 195.171 262.882 194.659C264.077 194.126 265.442 193.859 266.978 193.859C269.282 193.859 271.149 194.424 272.578 195.555C274.029 196.664 274.829 198.222 274.978 200.227H270.05C270.007 199.459 269.677 198.83 269.058 198.339C268.461 197.827 267.661 197.571 266.658 197.571C265.783 197.571 265.079 197.795 264.546 198.243C264.034 198.691 263.778 199.342 263.778 200.195C263.778 200.792 263.97 201.294 264.354 201.699C264.759 202.083 265.25 202.403 265.826 202.659C266.423 202.894 267.255 203.171 268.322 203.491C269.773 203.918 270.957 204.344 271.874 204.771C272.791 205.198 273.581 205.838 274.242 206.691C274.903 207.544 275.234 208.664 275.234 210.051C275.234 211.246 274.925 212.355 274.306 213.379C273.687 214.403 272.781 215.224 271.586 215.843C270.391 216.44 268.973 216.739 267.33 216.739ZM276.046 207.651C276.046 205.816 276.419 204.216 277.166 202.851C277.913 201.464 278.947 200.398 280.27 199.651C281.593 198.883 283.107 198.499 284.814 198.499C287.011 198.499 288.825 199.054 290.254 200.163C291.705 201.251 292.675 202.787 293.166 204.771H288.334C288.078 204.003 287.641 203.406 287.022 202.979C286.425 202.531 285.678 202.307 284.782 202.307C283.502 202.307 282.489 202.776 281.742 203.715C280.995 204.632 280.622 205.944 280.622 207.651C280.622 209.336 280.995 210.648 281.742 211.587C282.489 212.504 283.502 212.963 284.782 212.963C286.595 212.963 287.779 212.152 288.334 210.531H293.166C292.675 212.451 291.705 213.976 290.254 215.107C288.803 216.238 286.99 216.803 284.814 216.803C283.107 216.803 281.593 216.43 280.27 215.683C278.947 214.915 277.913 213.848 277.166 212.483C276.419 211.096 276.046 209.486 276.046 207.651ZM299.008 201.539C299.584 200.6 300.331 199.864 301.248 199.331C302.187 198.798 303.253 198.531 304.448 198.531V203.235H303.264C301.856 203.235 300.789 203.566 300.064 204.227C299.36 204.888 299.008 206.04 299.008 207.683V216.515H294.528V198.787H299.008V201.539ZM307.818 196.675C307.028 196.675 306.367 196.43 305.834 195.939C305.322 195.427 305.066 194.798 305.066 194.051C305.066 193.304 305.322 192.686 305.834 192.195C306.367 191.683 307.028 191.427 307.818 191.427C308.607 191.427 309.258 191.683 309.77 192.195C310.303 192.686 310.57 193.304 310.57 194.051C310.57 194.798 310.303 195.427 309.77 195.939C309.258 196.43 308.607 196.675 307.818 196.675ZM310.026 198.787V216.515H305.546V198.787H310.026ZM317.012 201.347C317.588 200.536 318.377 199.864 319.38 199.331C320.404 198.776 321.566 198.499 322.868 198.499C324.382 198.499 325.748 198.872 326.964 199.619C328.201 200.366 329.172 201.432 329.876 202.819C330.601 204.184 330.964 205.774 330.964 207.587C330.964 209.4 330.601 211.011 329.876 212.419C329.172 213.806 328.201 214.883 326.964 215.651C325.748 216.419 324.382 216.803 322.868 216.803C321.566 216.803 320.414 216.536 319.412 216.003C318.43 215.47 317.63 214.798 317.012 213.987V224.963H312.532V198.787H317.012V201.347ZM326.388 207.587C326.388 206.52 326.164 205.603 325.716 204.835C325.289 204.046 324.713 203.448 323.988 203.043C323.284 202.638 322.516 202.435 321.684 202.435C320.873 202.435 320.105 202.648 319.38 203.075C318.676 203.48 318.1 204.078 317.652 204.867C317.225 205.656 317.012 206.584 317.012 207.651C317.012 208.718 317.225 209.646 317.652 210.435C318.1 211.224 318.676 211.832 319.38 212.259C320.105 212.664 320.873 212.867 321.684 212.867C322.516 212.867 323.284 212.654 323.988 212.227C324.713 211.8 325.289 211.192 325.716 210.403C326.164 209.614 326.388 208.675 326.388 207.587ZM337.515 202.467V211.043C337.515 211.64 337.654 212.078 337.931 212.355C338.23 212.611 338.721 212.739 339.403 212.739H341.483V216.515H338.667C334.891 216.515 333.003 214.68 333.003 211.011V202.467H330.891V198.787H333.003V194.403H337.515V198.787H341.483V202.467H337.515ZM352.971 201.379C353.547 200.526 354.336 199.832 355.339 199.299C356.363 198.766 357.525 198.499 358.827 198.499C360.341 198.499 361.707 198.872 362.923 199.619C364.16 200.366 365.131 201.432 365.835 202.819C366.56 204.184 366.923 205.774 366.923 207.587C366.923 209.4 366.56 211.011 365.835 212.419C365.131 213.806 364.16 214.883 362.923 215.651C361.707 216.419 360.341 216.803 358.827 216.803C357.504 216.803 356.341 216.547 355.339 216.035C354.357 215.502 353.568 214.819 352.971 213.987V216.515H348.491V192.835H352.971V201.379ZM362.347 207.587C362.347 206.52 362.123 205.603 361.675 204.835C361.248 204.046 360.672 203.448 359.947 203.043C359.243 202.638 358.475 202.435 357.643 202.435C356.832 202.435 356.064 202.648 355.339 203.075C354.635 203.48 354.059 204.078 353.611 204.867C353.184 205.656 352.971 206.584 352.971 207.651C352.971 208.718 353.184 209.646 353.611 210.435C354.059 211.224 354.635 211.832 355.339 212.259C356.064 212.664 356.832 212.867 357.643 212.867C358.475 212.867 359.243 212.654 359.947 212.227C360.672 211.8 361.248 211.192 361.675 210.403C362.123 209.614 362.347 208.675 362.347 207.587ZM370.53 196.675C369.741 196.675 369.079 196.43 368.546 195.939C368.034 195.427 367.778 194.798 367.778 194.051C367.778 193.304 368.034 192.686 368.546 192.195C369.079 191.683 369.741 191.427 370.53 191.427C371.319 191.427 371.97 191.683 372.482 192.195C373.015 192.686 373.282 193.304 373.282 194.051C373.282 194.798 373.015 195.427 372.482 195.939C371.97 196.43 371.319 196.675 370.53 196.675ZM372.738 198.787V216.515H368.258V198.787H372.738ZM385.068 198.531C387.18 198.531 388.887 199.203 390.188 200.547C391.49 201.87 392.14 203.726 392.14 206.115V216.515H387.66V206.723C387.66 205.315 387.308 204.238 386.604 203.491C385.9 202.723 384.94 202.339 383.724 202.339C382.487 202.339 381.506 202.723 380.78 203.491C380.076 204.238 379.724 205.315 379.724 206.723V216.515H375.244V198.787H379.724V200.995C380.322 200.227 381.079 199.63 381.996 199.203C382.935 198.755 383.959 198.531 385.068 198.531ZM393.329 207.587C393.329 205.795 393.681 204.206 394.385 202.819C395.11 201.432 396.091 200.366 397.329 199.619C398.566 198.872 399.942 198.499 401.457 198.499C402.609 198.499 403.707 198.755 404.753 199.267C405.798 199.758 406.63 200.419 407.249 201.251V192.835H411.793V216.515H407.249V213.891C406.694 214.766 405.915 215.47 404.913 216.003C403.91 216.536 402.747 216.803 401.425 216.803C399.931 216.803 398.566 216.419 397.329 215.651C396.091 214.883 395.11 213.806 394.385 212.419C393.681 211.011 393.329 209.4 393.329 207.587ZM407.281 207.651C407.281 206.563 407.067 205.635 406.641 204.867C406.214 204.078 405.638 203.48 404.913 203.075C404.187 202.648 403.409 202.435 402.577 202.435C401.745 202.435 400.977 202.638 400.273 203.043C399.569 203.448 398.993 204.046 398.545 204.835C398.118 205.603 397.905 206.52 397.905 207.587C397.905 208.654 398.118 209.592 398.545 210.403C398.993 211.192 399.569 211.8 400.273 212.227C400.998 212.654 401.766 212.867 402.577 212.867C403.409 212.867 404.187 212.664 404.913 212.259C405.638 211.832 406.214 211.235 406.641 210.467C407.067 209.678 407.281 208.739 407.281 207.651ZM416.52 196.675C415.731 196.675 415.069 196.43 414.536 195.939C414.024 195.427 413.768 194.798 413.768 194.051C413.768 193.304 414.024 192.686 414.536 192.195C415.069 191.683 415.731 191.427 416.52 191.427C417.309 191.427 417.96 191.683 418.472 192.195C419.005 192.686 419.272 193.304 419.272 194.051C419.272 194.798 419.005 195.427 418.472 195.939C417.96 196.43 417.309 196.675 416.52 196.675ZM418.728 198.787V216.515H414.248V198.787H418.728ZM431.058 198.531C433.17 198.531 434.877 199.203 436.178 200.547C437.48 201.87 438.13 203.726 438.13 206.115V216.515H433.65V206.723C433.65 205.315 433.298 204.238 432.594 203.491C431.89 202.723 430.93 202.339 429.714 202.339C428.477 202.339 427.496 202.723 426.77 203.491C426.066 204.238 425.714 205.315 425.714 206.723V216.515H421.234V198.787H425.714V200.995C426.312 200.227 427.069 199.63 427.986 199.203C428.925 198.755 429.949 198.531 431.058 198.531ZM447.414 198.499C448.737 198.499 449.9 198.766 450.902 199.299C451.905 199.811 452.694 200.483 453.27 201.315V198.787H457.782V216.643C457.782 218.286 457.452 219.747 456.79 221.027C456.129 222.328 455.137 223.352 453.814 224.099C452.492 224.867 450.892 225.251 449.014 225.251C446.497 225.251 444.428 224.664 442.806 223.491C441.206 222.318 440.3 220.718 440.086 218.691H444.534C444.769 219.502 445.27 220.142 446.038 220.611C446.828 221.102 447.777 221.347 448.886 221.347C450.188 221.347 451.244 220.952 452.054 220.163C452.865 219.395 453.27 218.222 453.27 216.643V213.891C452.694 214.723 451.894 215.416 450.87 215.971C449.868 216.526 448.716 216.803 447.414 216.803C445.921 216.803 444.556 216.419 443.318 215.651C442.081 214.883 441.1 213.806 440.374 212.419C439.67 211.011 439.318 209.4 439.318 207.587C439.318 205.795 439.67 204.206 440.374 202.819C441.1 201.432 442.07 200.366 443.286 199.619C444.524 198.872 445.9 198.499 447.414 198.499ZM453.27 207.651C453.27 206.563 453.057 205.635 452.63 204.867C452.204 204.078 451.628 203.48 450.902 203.075C450.177 202.648 449.398 202.435 448.566 202.435C447.734 202.435 446.966 202.638 446.262 203.043C445.558 203.448 444.982 204.046 444.534 204.835C444.108 205.603 443.894 206.52 443.894 207.587C443.894 208.654 444.108 209.592 444.534 210.403C444.982 211.192 445.558 211.8 446.262 212.227C446.988 212.654 447.756 212.867 448.566 212.867C449.398 212.867 450.177 212.664 450.902 212.259C451.628 211.832 452.204 211.235 452.63 210.467C453.057 209.678 453.27 208.739 453.27 207.651ZM467.022 216.803C465.571 216.803 464.27 216.547 463.118 216.035C461.966 215.502 461.049 214.787 460.366 213.891C459.705 212.995 459.342 212.003 459.278 210.915H463.79C463.875 211.598 464.206 212.163 464.782 212.611C465.379 213.059 466.115 213.283 466.99 213.283C467.843 213.283 468.505 213.112 468.974 212.771C469.465 212.43 469.71 211.992 469.71 211.459C469.71 210.883 469.411 210.456 468.814 210.179C468.238 209.88 467.31 209.56 466.03 209.219C464.707 208.899 463.619 208.568 462.766 208.227C461.934 207.886 461.209 207.363 460.59 206.659C459.993 205.955 459.694 205.006 459.694 203.811C459.694 202.83 459.971 201.934 460.526 201.123C461.102 200.312 461.913 199.672 462.958 199.203C464.025 198.734 465.273 198.499 466.702 198.499C468.814 198.499 470.499 199.032 471.758 200.099C473.017 201.144 473.71 202.563 473.838 204.355H469.55C469.486 203.651 469.187 203.096 468.654 202.691C468.142 202.264 467.449 202.051 466.574 202.051C465.763 202.051 465.134 202.2 464.686 202.499C464.259 202.798 464.046 203.214 464.046 203.747C464.046 204.344 464.345 204.803 464.942 205.123C465.539 205.422 466.467 205.731 467.726 206.051C469.006 206.371 470.062 206.702 470.894 207.043C471.726 207.384 472.441 207.918 473.038 208.643C473.657 209.347 473.977 210.286 473.998 211.459C473.998 212.483 473.71 213.4 473.134 214.211C472.579 215.022 471.769 215.662 470.702 216.131C469.657 216.579 468.43 216.803 467.022 216.803ZM489.589 202.467H486.485V216.515H481.941V202.467H479.925V198.787H481.941V197.891C481.941 195.715 482.559 194.115 483.797 193.091C485.034 192.067 486.901 191.587 489.397 191.651V195.427C488.309 195.406 487.551 195.587 487.125 195.971C486.698 196.355 486.485 197.048 486.485 198.051V198.787H489.589V202.467ZM498.444 216.803C496.737 216.803 495.201 216.43 493.836 215.683C492.47 214.915 491.393 213.838 490.604 212.451C489.836 211.064 489.452 209.464 489.452 207.651C489.452 205.838 489.846 204.238 490.636 202.851C491.446 201.464 492.545 200.398 493.932 199.651C495.318 198.883 496.865 198.499 498.572 198.499C500.278 198.499 501.825 198.883 503.212 199.651C504.598 200.398 505.686 201.464 506.476 202.851C507.286 204.238 507.692 205.838 507.692 207.651C507.692 209.464 507.276 211.064 506.444 212.451C505.633 213.838 504.524 214.915 503.116 215.683C501.729 216.43 500.172 216.803 498.444 216.803ZM498.444 212.899C499.254 212.899 500.012 212.707 500.716 212.323C501.441 211.918 502.017 211.32 502.444 210.531C502.87 209.742 503.084 208.782 503.084 207.651C503.084 205.966 502.636 204.675 501.74 203.779C500.865 202.862 499.788 202.403 498.508 202.403C497.228 202.403 496.15 202.862 495.276 203.779C494.422 204.675 493.996 205.966 493.996 207.651C493.996 209.336 494.412 210.638 495.244 211.555C496.097 212.451 497.164 212.899 498.444 212.899ZM513.538 201.539C514.114 200.6 514.861 199.864 515.778 199.331C516.717 198.798 517.783 198.531 518.978 198.531V203.235H517.794C516.386 203.235 515.319 203.566 514.594 204.227C513.89 204.888 513.538 206.04 513.538 207.683V216.515H509.058V198.787H513.538V201.539ZM537.301 216.515L532.373 207.811H530.261V216.515H525.781V194.179H534.165C535.893 194.179 537.365 194.488 538.581 195.107C539.797 195.704 540.703 196.526 541.301 197.571C541.919 198.595 542.229 199.747 542.229 201.027C542.229 202.499 541.802 203.832 540.949 205.027C540.095 206.2 538.826 207.011 537.141 207.459L542.485 216.515H537.301ZM530.261 204.451H534.005C535.221 204.451 536.127 204.163 536.725 203.587C537.322 202.99 537.621 202.168 537.621 201.123C537.621 200.099 537.322 199.31 536.725 198.755C536.127 198.179 535.221 197.891 534.005 197.891H530.261V204.451ZM560.84 207.267C560.84 207.907 560.798 208.483 560.712 208.995H547.752C547.859 210.275 548.307 211.278 549.096 212.003C549.886 212.728 550.856 213.091 552.008 213.091C553.672 213.091 554.856 212.376 555.56 210.947H560.392C559.88 212.654 558.899 214.062 557.448 215.171C555.998 216.259 554.216 216.803 552.104 216.803C550.398 216.803 548.862 216.43 547.496 215.683C546.152 214.915 545.096 213.838 544.328 212.451C543.582 211.064 543.208 209.464 543.208 207.651C543.208 205.816 543.582 204.206 544.328 202.819C545.075 201.432 546.12 200.366 547.464 199.619C548.808 198.872 550.355 198.499 552.104 198.499C553.79 198.499 555.294 198.862 556.616 199.587C557.96 200.312 558.995 201.347 559.72 202.691C560.467 204.014 560.84 205.539 560.84 207.267ZM556.2 205.987C556.179 204.835 555.763 203.918 554.952 203.235C554.142 202.531 553.15 202.179 551.976 202.179C550.867 202.179 549.928 202.52 549.16 203.203C548.414 203.864 547.955 204.792 547.784 205.987H556.2ZM561.039 207.587C561.039 205.795 561.391 204.206 562.095 202.819C562.82 201.432 563.791 200.366 565.007 199.619C566.244 198.872 567.62 198.499 569.135 198.499C570.457 198.499 571.609 198.766 572.591 199.299C573.593 199.832 574.393 200.504 574.991 201.315V198.787H579.503V216.515H574.991V213.923C574.415 214.755 573.615 215.448 572.591 216.003C571.588 216.536 570.425 216.803 569.103 216.803C567.609 216.803 566.244 216.419 565.007 215.651C563.791 214.883 562.82 213.806 562.095 212.419C561.391 211.011 561.039 209.4 561.039 207.587ZM574.991 207.651C574.991 206.563 574.777 205.635 574.351 204.867C573.924 204.078 573.348 203.48 572.623 203.075C571.897 202.648 571.119 202.435 570.287 202.435C569.455 202.435 568.687 202.638 567.983 203.043C567.279 203.448 566.703 204.046 566.255 204.835C565.828 205.603 565.615 206.52 565.615 207.587C565.615 208.654 565.828 209.592 566.255 210.403C566.703 211.192 567.279 211.8 567.983 212.227C568.708 212.654 569.476 212.867 570.287 212.867C571.119 212.867 571.897 212.664 572.623 212.259C573.348 211.832 573.924 211.235 574.351 210.467C574.777 209.678 574.991 208.739 574.991 207.651ZM580.806 207.651C580.806 205.816 581.179 204.216 581.926 202.851C582.673 201.464 583.707 200.398 585.03 199.651C586.353 198.883 587.867 198.499 589.574 198.499C591.771 198.499 593.585 199.054 595.014 200.163C596.465 201.251 597.435 202.787 597.926 204.771H593.094C592.838 204.003 592.401 203.406 591.782 202.979C591.185 202.531 590.438 202.307 589.542 202.307C588.262 202.307 587.249 202.776 586.502 203.715C585.755 204.632 585.382 205.944 585.382 207.651C585.382 209.336 585.755 210.648 586.502 211.587C587.249 212.504 588.262 212.963 589.542 212.963C591.355 212.963 592.539 212.152 593.094 210.531H597.926C597.435 212.451 596.465 213.976 595.014 215.107C593.563 216.238 591.75 216.803 589.574 216.803C587.867 216.803 586.353 216.43 585.03 215.683C583.707 214.915 582.673 213.848 581.926 212.483C581.179 211.096 580.806 209.486 580.806 207.651ZM604.504 202.467V211.043C604.504 211.64 604.643 212.078 604.92 212.355C605.219 212.611 605.709 212.739 606.392 212.739H608.472V216.515H605.656C601.88 216.515 599.992 214.68 599.992 211.011V202.467H597.88V198.787H599.992V194.403H604.504V198.787H608.472V202.467H604.504ZM629.271 194.179V197.795H619.959V203.523H627.095V207.075H619.959V216.515H615.479V194.179H629.271ZM635.008 192.835V216.515H630.528V192.835H635.008ZM645.386 216.803C643.68 216.803 642.144 216.43 640.778 215.683C639.413 214.915 638.336 213.838 637.546 212.451C636.778 211.064 636.394 209.464 636.394 207.651C636.394 205.838 636.789 204.238 637.578 202.851C638.389 201.464 639.488 200.398 640.874 199.651C642.261 198.883 643.808 198.499 645.514 198.499C647.221 198.499 648.768 198.883 650.154 199.651C651.541 200.398 652.629 201.464 653.418 202.851C654.229 204.238 654.634 205.838 654.634 207.651C654.634 209.464 654.218 211.064 653.386 212.451C652.576 213.838 651.466 214.915 650.058 215.683C648.672 216.43 647.114 216.803 645.386 216.803ZM645.386 212.899C646.197 212.899 646.954 212.707 647.658 212.323C648.384 211.918 648.96 211.32 649.386 210.531C649.813 209.742 650.026 208.782 650.026 207.651C650.026 205.966 649.578 204.675 648.682 203.779C647.808 202.862 646.73 202.403 645.45 202.403C644.17 202.403 643.093 202.862 642.218 203.779C641.365 204.675 640.938 205.966 640.938 207.651C640.938 209.336 641.354 210.638 642.186 211.555C643.04 212.451 644.106 212.899 645.386 212.899ZM680.577 198.787L675.393 216.515H670.561L667.329 204.131L664.097 216.515H659.233L654.017 198.787H658.561L661.697 212.291L665.089 198.787H669.825L673.153 212.259L676.289 198.787H680.577Z" fill="#0E0E0E"/>
<path d="M407.326 126.271H388.947C386.917 126.271 385.271 127.917 385.271 129.947V148.326C385.271 150.356 386.917 152.001 388.947 152.001H407.326C409.356 152.001 411.001 150.356 411.001 148.326V129.947C411.001 127.917 409.356 126.271 407.326 126.271Z" fill="#FBFBFB" stroke="#0E0E0E" stroke-width="3.67575"/>
<path d="M407.326 89.5136H388.947C386.917 89.5136 385.271 91.1593 385.271 93.1894V111.568C385.271 113.598 386.917 115.244 388.947 115.244H407.326C409.356 115.244 411.001 113.598 411.001 111.568V93.1894C411.001 91.1593 409.356 89.5136 407.326 89.5136Z" fill="#FBFBFB" stroke="#DD1350" stroke-width="3.67575"/>
<path d="M370.568 126.271H352.19C350.159 126.271 348.514 127.917 348.514 129.947V148.326C348.514 150.356 350.159 152.001 352.19 152.001H370.568C372.598 152.001 374.244 150.356 374.244 148.326V129.947C374.244 127.917 372.598 126.271 370.568 126.271Z" fill="#FBFBFB" stroke="#0E0E0E" stroke-width="3.67575"/>
<path d="M370.568 89.5136H352.19C350.159 89.5136 348.514 91.1593 348.514 93.1894V111.568C348.514 113.598 350.159 115.244 352.19 115.244H370.568C372.598 115.244 374.244 113.598 374.244 111.568V93.1894C374.244 91.1593 372.598 89.5136 370.568 89.5136Z" fill="#FBFBFB" stroke="#0E0E0E" stroke-width="3.67575"/>
<path d="M374.244 107.892C377.289 107.892 379.757 105.424 379.757 102.379C379.757 99.3337 377.289 96.8651 374.244 96.8651C371.199 96.8651 368.73 99.3337 368.73 102.379C368.73 105.424 371.199 107.892 374.244 107.892Z" fill="#FBFBFB"/>
<path d="M385.271 107.892C388.316 107.892 390.785 105.424 390.785 102.379C390.785 99.3337 388.316 96.8651 385.271 96.8651C382.226 96.8651 379.758 99.3337 379.758 102.379C379.758 105.424 382.226 107.892 385.271 107.892Z" fill="#FBFBFB"/>
<path d="M398.136 120.758C401.181 120.758 403.65 118.289 403.65 115.244C403.65 112.199 401.181 109.73 398.136 109.73C395.091 109.73 392.623 112.199 392.623 115.244C392.623 118.289 395.091 120.758 398.136 120.758Z" fill="#FBFBFB"/>
<path d="M398.136 131.785C401.181 131.785 403.65 129.316 403.65 126.271C403.65 123.226 401.181 120.758 398.136 120.758C395.091 120.758 392.623 123.226 392.623 126.271C392.623 129.316 395.091 131.785 398.136 131.785Z" fill="#FBFBFB"/>
<path d="M374.244 144.65C377.289 144.65 379.757 142.181 379.757 139.136C379.757 136.091 377.289 133.623 374.244 133.623C371.199 133.623 368.73 136.091 368.73 139.136C368.73 142.181 371.199 144.65 374.244 144.65Z" fill="#FBFBFB"/>
<path d="M385.271 144.65C388.316 144.65 390.785 142.181 390.785 139.136C390.785 136.091 388.316 133.623 385.271 133.623C382.226 133.623 379.758 136.091 379.758 139.136C379.758 142.181 382.226 144.65 385.271 144.65Z" fill="#FBFBFB"/>
<path d="M398.136 129.947C400.166 129.947 401.812 128.301 401.812 126.271C401.812 124.241 400.166 122.595 398.136 122.595C396.106 122.595 394.46 124.241 394.46 126.271C394.46 128.301 396.106 129.947 398.136 129.947Z" fill="#0E0E0E"/>
<path d="M374.244 142.812C376.274 142.812 377.92 141.166 377.92 139.136C377.92 137.106 376.274 135.461 374.244 135.461C372.214 135.461 370.568 137.106 370.568 139.136C370.568 141.166 372.214 142.812 374.244 142.812Z" fill="#0E0E0E"/>
<path d="M385.271 142.812C387.301 142.812 388.947 141.166 388.947 139.136C388.947 137.106 387.301 135.461 385.271 135.461C383.241 135.461 381.595 137.106 381.595 139.136C381.595 141.166 383.241 142.812 385.271 142.812Z" fill="#0E0E0E"/>
<path opacity="0.35" d="M383.433 101.46H376.082V103.298H383.433V101.46Z" fill="#0E0E0E"/>
<path opacity="0.35" d="M397.217 116.163V123.514H399.055V116.163H397.217Z" fill="#0E0E0E"/>
<path opacity="0.35" d="M383.433 138.217H376.082V140.055H383.433V138.217Z" fill="#0E0E0E"/>
<path d="M374.244 106.055C376.274 106.055 377.92 104.409 377.92 102.379C377.92 100.349 376.274 98.703 374.244 98.703C372.214 98.703 370.568 100.349 370.568 102.379C370.568 104.409 372.214 106.055 374.244 106.055Z" fill="#0E0E0E"/>
<path d="M385.271 106.055C387.301 106.055 388.947 104.409 388.947 102.379C388.947 100.349 387.301 98.703 385.271 98.703C383.241 98.703 381.595 100.349 381.595 102.379C381.595 104.409 383.241 106.055 385.271 106.055Z" fill="#DD1350"/>
<path d="M398.136 118.92C400.166 118.92 401.812 117.274 401.812 115.244C401.812 113.214 400.166 111.568 398.136 111.568C396.106 111.568 394.46 113.214 394.46 115.244C394.46 117.274 396.106 118.92 398.136 118.92Z" fill="#DD1350"/>
<g clip-path="url(#clip0)">
<g filter="url(#filter0_i)">
<path d="M490.03 109.353C490.03 100.214 490.03 95.647 492.357 92.442C493.109 91.4073 494.019 90.4973 495.054 89.7453C498.255 87.4186 502.825 87.4186 511.963 87.4186H536.566C545.704 87.4186 550.271 87.4186 553.476 89.7453C554.511 90.497 555.42 91.4071 556.172 92.442C558.499 95.6451 558.499 100.214 558.499 109.353V133.955C558.499 143.093 558.499 147.66 556.172 150.865C555.421 151.9 554.511 152.81 553.476 153.56C550.273 155.888 545.704 155.888 536.566 155.888H511.963C502.825 155.888 498.257 155.888 495.054 153.56C494.019 152.809 493.109 151.899 492.357 150.865C490.03 147.662 490.03 143.093 490.03 133.955V109.353Z" fill="#DD1350"/>
</g>
<g filter="url(#filter1_di)">
<path d="M536.428 120.027C540.918 120.027 544.558 116.387 544.558 111.897C544.558 107.407 540.918 103.768 536.428 103.768C531.938 103.768 528.299 107.407 528.299 111.897C528.299 116.387 531.938 120.027 536.428 120.027Z" fill="#FBFBFB"/>
</g>
<path d="M508.494 111.447C508.494 108.866 508.494 107.575 508.998 106.588C509.439 105.719 510.144 105.013 511.012 104.571C511.998 104.069 513.289 104.069 515.871 104.069L521.76 103.497L522.325 104.069V134.032C522.325 136.179 522.169 137.144 521.818 137.991C521.586 138.55 521.246 139.058 520.818 139.486C520.39 139.914 519.882 140.254 519.323 140.485C518.476 140.836 517.557 140.945 515.41 140.945C513.263 140.945 512.188 140.945 511.342 140.594C510.783 140.363 510.275 140.023 509.847 139.595C509.419 139.167 509.079 138.659 508.847 138.1C508.496 137.253 508.496 136.179 508.496 134.032L508.494 111.447Z" fill="#DD1350"/>
<g filter="url(#filter2_i)">
<path d="M507.919 110.87C507.919 108.289 507.919 106.998 508.423 106.011C508.864 105.143 509.57 104.436 510.438 103.994C511.424 103.493 512.714 103.493 515.296 103.493H521.75V133.455C521.75 135.603 521.75 136.677 521.399 137.523C521.167 138.082 520.828 138.591 520.399 139.018C519.971 139.446 519.463 139.786 518.904 140.017C518.057 140.369 516.983 140.369 514.836 140.369C512.688 140.369 511.614 140.369 510.768 140.017C510.208 139.786 509.7 139.446 509.272 139.018C508.844 138.591 508.504 138.082 508.273 137.523C507.921 136.676 507.921 135.602 507.921 133.455L507.919 110.87Z" fill="#FBFBFB"/>
</g>
</g>
<path d="M464.084 120.758C464.084 121.881 463.173 122.793 462.049 122.793H455.52V129.322C455.52 130.563 454.514 131.569 453.273 131.569C452.032 131.569 451.026 130.563 451.026 129.322V122.793H444.497C443.373 122.793 442.462 121.881 442.462 120.758C442.462 119.634 443.373 118.723 444.497 118.723H451.026V112.193C451.026 110.953 452.032 109.946 453.273 109.946C454.514 109.946 455.52 110.953 455.52 112.193V118.723H462.049C463.173 118.723 464.084 119.634 464.084 120.758Z" fill="#0E0E0E"/>
<defs>
<filter id="filter0_i" x="490.03" y="86.9602" width="68.4693" height="68.9283" filterUnits="userSpaceOnUse" color-interpolation-filters="sRGB">
<feFlood flood-opacity="0" result="BackgroundImageFix"/>
<feBlend mode="normal" in="SourceGraphic" in2="BackgroundImageFix" result="shape"/>
<feColorMatrix in="SourceAlpha" type="matrix" values="0 0 0 0 0 0 0 0 0 0 0 0 0 0 0 0 0 0 127 0" result="hardAlpha"/>
<feOffset dy="-0.458384"/>
<feGaussianBlur stdDeviation="0.458384"/>
<feComposite in2="hardAlpha" operator="arithmetic" k2="-1" k3="1"/>
<feColorMatrix type="matrix" values="0 0 0 0 0 0 0 0 0 0 0 0 0 0 0 0 0 0 0.2 0"/>
<feBlend mode="normal" in2="shape" result="effect1_innerShadow"/>
</filter>
<filter id="filter1_di" x="527.382" y="102.393" width="18.8518" height="19.3102" filterUnits="userSpaceOnUse" color-interpolation-filters="sRGB">
<feFlood flood-opacity="0" result="BackgroundImageFix"/>
<feColorMatrix in="SourceAlpha" type="matrix" values="0 0 0 0 0 0 0 0 0 0 0 0 0 0 0 0 0 0 127 0"/>
<feOffset dx="0.580622" dy="0.580622"/>
<feGaussianBlur stdDeviation="0.547759"/>
<feColorMatrix type="matrix" values="0 0 0 0 0 0 0 0 0 0 0 0 0 0 0 0 0 0 0.15 0"/>
<feBlend mode="normal" in2="BackgroundImageFix" result="effect1_dropShadow"/>
<feBlend mode="normal" in="SourceGraphic" in2="effect1_dropShadow" result="shape"/>
<feColorMatrix in="SourceAlpha" type="matrix" values="0 0 0 0 0 0 0 0 0 0 0 0 0 0 0 0 0 0 127 0" result="hardAlpha"/>
<feOffset dx="-0.916771" dy="-1.37515"/>
<feGaussianBlur stdDeviation="1.16124"/>
<feComposite in2="hardAlpha" operator="arithmetic" k2="-1" k3="1"/>
<feColorMatrix type="matrix" values="0 0 0 0 0.321804 0 0 0 0 0.309804 0 0 0 0 0.909804 0 0 0 0.25 0"/>
<feBlend mode="normal" in2="shape" result="effect2_innerShadow"/>
</filter>
<filter id="filter2_i" x="507.002" y="102.118" width="14.7481" height="38.251" filterUnits="userSpaceOnUse" color-interpolation-filters="sRGB">
<feFlood flood-opacity="0" result="BackgroundImageFix"/>
<feBlend mode="normal" in="SourceGraphic" in2="BackgroundImageFix" result="shape"/>
<feColorMatrix in="SourceAlpha" type="matrix" values="0 0 0 0 0 0 0 0 0 0 0 0 0 0 0 0 0 0 127 0" result="hardAlpha"/>
<feOffset dx="-0.917384" dy="-1.37515"/>
<feGaussianBlur stdDeviation="1.16124"/>
<feComposite in2="hardAlpha" operator="arithmetic" k2="-1" k3="1"/>
<feColorMatrix type="matrix" values="0 0 0 0 0.321804 0 0 0 0 0.309804 0 0 0 0 0.909804 0 0 0 0.25 0"/>
<feBlend mode="normal" in2="shape" result="effect1_innerShadow"/>
</filter>
<clipPath id="clip0">
<rect width="68.4699" height="68.4699" fill="white" transform="translate(490.03 86.8829)"/>
</clipPath>
</defs>
</svg>
